<?xml version="1.0" encoding="UTF-8"?>
<svg width="64px" height="64px" viewBox="0 0 64 64" version="1.1" xmlns="http://www.w3.org/2000/svg" xmlns:xlink="http://www.w3.org/1999/xlink">
    <title>Icon/Generic/Height</title>
    <g id="Icon/Generic/Height" stroke="none" stroke-width="1" fill="none" fill-rule="evenodd">
        <rect id="Rectangle" x="0" y="0" width="64" height="64"></rect>
        <g id="Group" transform="translate(7.000000, 15.000000)" fill-rule="nonzero">
            <path d="M37.9066528,0.0583287064 L37.9066528,28.904715 L33.0063011,34.0435402 L33,34.0373287 L33,34.0714286 L1.42108547e-13,34.0714286 L1.42108547e-13,5.07142857 L0.058,5.07132871 L2.06057393e-13,5.00717573 L5.5741805,0.0583287064 L37.9066528,0.0583287064 Z M31,7.07117042 L2,7.07117042 L2,32.0711704 L31,32.0711704 L31,7.07117042 Z M35.907,3.62832871 L33,6.53532871 L33,31.1503287 L35.9070905,28.1029517 L35.907,3.62832871 Z M31.636,5.07132871 L34.65,2.05732871 L6.33409048,2.05795171 L2.939,5.07132871 L31.636,5.07132871 Z" id="Combined-Shape" fill="#979797"></path>
            <path d="M45.0714286,-1.27897692e-13 L49.0714286,9.14285714 L45.9994286,9.142 L45.9994286,19.999 L49.0714286,20 L45.0714286,29.1428571 L41.0714286,20 L43.9994286,19.999 L43.9994286,9.142 L41.0714286,9.14285714 L45.0714286,-1.27897692e-13 Z" id="Combined-Shape" fill="#225D98"></path>
        </g>
    </g>
</svg>